<?xml version="1.0" encoding="UTF-8" standalone="no"?>
<svg
   style="fill-opacity:1; color-rendering:auto; color-interpolation:auto; text-rendering:auto; stroke:black; stroke-linecap:square; stroke-miterlimit:10; shape-rendering:auto; stroke-opacity:1; fill:black; stroke-dasharray:none; font-weight:normal; stroke-width:1; font-family:'Dialog'; font-style:normal; stroke-linejoin:miter; font-size:12px; stroke-dashoffset:0; image-rendering:auto;"
   width="837"
   height="651"
   version="1.1"
   id="svg242244"
   sodipodi:docname="0e7acf26_fscore_hb.svg"
   inkscape:version="1.2.1 (9c6d41e410, 2022-07-14)"
   xmlns:inkscape="http://www.inkscape.org/namespaces/inkscape"
   xmlns:sodipodi="http://sodipodi.sourceforge.net/DTD/sodipodi-0.dtd"
   xmlns="http://www.w3.org/2000/svg"
   xmlns:svg="http://www.w3.org/2000/svg">
  <sodipodi:namedview
     id="namedview242246"
     pagecolor="#ffffff"
     bordercolor="#111111"
     borderopacity="1"
     inkscape:showpageshadow="0"
     inkscape:pageopacity="0"
     inkscape:pagecheckerboard="1"
     inkscape:deskcolor="#d1d1d1"
     showgrid="false"
     inkscape:zoom="0.90913729"
     inkscape:cx="340.43263"
     inkscape:cy="317.88378"
     inkscape:window-width="1920"
     inkscape:window-height="1017"
     inkscape:window-x="-8"
     inkscape:window-y="-8"
     inkscape:window-maximized="1"
     inkscape:current-layer="g242242" />
  <!--Generated by the Batik Graphics2D SVG Generator-->
  <defs
     id="genericDefs" />
  <g
     id="g242242"
     inkscape:label="0e7acf26 FScore HB">
    <defs
       id="defs1">
      <clipPath
         clipPathUnits="userSpaceOnUse"
         id="clipPath1">
        <path
           d="M0 0 L837 0 L837 651 L0 651 L0 0 Z"
           id="path242050" />
      </clipPath>
      <font
         horiz-adv-x="75.0"
         id="font1">
        <font-face
           ascent="100.53711"
           descent="21.972656"
           units-per-em="100"
           style="font-style:normal; font-family:Dialog; font-weight:bold;"
           id="font-face242053" />
        <missing-glyph
           horiz-adv-x="75.0"
           d="M12.5 0 L12.5 62.5 L62.5 62.5 L62.5 0 L12.5 0 ZM14.0625 1.5625 L60.9375 1.5625 L60.9375 60.9375 L14.0625 60.9375 L14.0625 1.5625 Z"
           id="missing-glyph242055" />
        <glyph
           unicode=")"
           horiz-adv-x="33.30078"
           d="M3.375 -21.0469 Q7.4219 -12.3594 9.0859 -7.7188 Q10.75 -3.0781 12.1641 2.9766 Q13.5781 9.0312 14.2578 14.4766 Q14.9375 19.9219 14.9375 25.6406 Q14.9375 37.25 12.4531 47.6328 Q9.9688 58.0156 3.2656 72.7969 L12.5938 72.7969 Q19.9688 62.3125 24.0469 50.5391 Q28.125 38.7656 28.125 26.6562 Q28.125 16.4531 24.9062 4.7812 Q21.2344 -8.2969 12.8438 -21.0469 L3.375 -21.0469 Z"
           id="glyph242057" />
        <glyph
           unicode="u"
           horiz-adv-x="61.083984"
           d="M41.3125 0 L41.3125 7.7656 Q38.4844 3.6094 33.8672 1.2188 Q29.25 -1.1719 24.125 -1.1719 Q18.8906 -1.1719 14.7422 1.125 Q10.5938 3.4219 8.7422 7.5703 Q6.8906 11.7188 6.8906 19.0469 L6.8906 51.8594 L20.6094 51.8594 L20.6094 28.0312 Q20.6094 17.0938 21.3672 14.625 Q22.125 12.1562 24.125 10.7188 Q26.125 9.2812 29.2031 9.2812 Q32.7188 9.2812 35.5 11.2109 Q38.2812 13.1406 39.3047 15.9922 Q40.3281 18.8438 40.3281 29.9844 L40.3281 51.8594 L54.0469 51.8594 L54.0469 0 L41.3125 0 Z"
           id="glyph242059" />
        <glyph
           unicode="."
           horiz-adv-x="27.783203"
           d="M7.1719 0 L7.1719 13.7188 L20.9062 13.7188 L20.9062 0 L7.1719 0 Z"
           id="glyph242061" />
        <glyph
           unicode="a"
           horiz-adv-x="55.615234"
           d="M17.4375 36.0312 L4.9844 38.2812 Q7.0781 45.7969 12.2031 49.4141 Q17.3281 53.0312 27.4375 53.0312 Q36.625 53.0312 41.1172 50.8594 Q45.6094 48.6875 47.4375 45.3438 Q49.2656 42 49.2656 33.0625 L49.125 17.0469 Q49.125 10.2031 49.7812 6.9609 Q50.4375 3.7188 52.25 0 L38.6719 0 Q38.1406 1.375 37.3594 4.0469 Q37.0156 5.2812 36.8594 5.6719 Q33.3438 2.25 29.3438 0.5391 Q25.3438 -1.1719 20.7969 -1.1719 Q12.7969 -1.1719 8.1797 3.1719 Q3.5625 7.5156 3.5625 14.1562 Q3.5625 18.5625 5.6641 22 Q7.7656 25.4375 11.5469 27.2734 Q15.3281 29.1094 22.4688 30.4688 Q32.0781 32.2812 35.7969 33.8438 L35.7969 35.2031 Q35.7969 39.1562 33.8438 40.8438 Q31.8906 42.5312 26.4688 42.5312 Q22.7969 42.5312 20.75 41.0938 Q18.7031 39.6562 17.4375 36.0312 ZM35.7969 24.9062 Q33.1562 24.0312 27.4453 22.8047 Q21.7344 21.5781 19.9688 20.4062 Q17.2812 18.5 17.2812 15.5781 Q17.2812 12.7031 19.4297 10.6016 Q21.5781 8.5 24.9062 8.5 Q28.6094 8.5 31.9844 10.9375 Q34.4688 12.7969 35.25 15.4844 Q35.7969 17.2344 35.7969 22.1719 L35.7969 24.9062 Z"
           id="glyph242063" />
        <glyph
           unicode="("
           horiz-adv-x="33.30078"
           d="M29.9375 -21.0469 L20.5156 -21.0469 Q13.0312 -9.7656 9.125 2.3906 Q5.2188 14.5469 5.2188 25.9219 Q5.2188 40.0469 10.0625 52.6406 Q14.2656 63.5781 20.7031 72.7969 L30.0781 72.7969 Q23.3906 58.0156 20.875 47.6328 Q18.3594 37.25 18.3594 25.6406 Q18.3594 17.625 19.8516 9.2266 Q21.3438 0.8281 23.9219 -6.7344 Q25.6406 -11.7188 29.9375 -21.0469 Z"
           id="glyph242065" />
        <glyph
           unicode=" "
           horiz-adv-x="27.783203"
           d=""
           id="glyph242067" />
        <glyph
           unicode="d"
           horiz-adv-x="61.083984"
           d="M54.7344 0 L42 0 L42 7.625 Q38.8125 3.1719 34.4922 1 Q30.1719 -1.1719 25.7812 -1.1719 Q16.8438 -1.1719 10.4766 6.0312 Q4.1094 13.2344 4.1094 26.125 Q4.1094 39.3125 10.3047 46.1719 Q16.5 53.0312 25.9844 53.0312 Q34.6719 53.0312 41.0156 45.7969 L41.0156 71.5781 L54.7344 71.5781 L54.7344 0 ZM18.1094 27.0469 Q18.1094 18.75 20.4062 15.0469 Q23.7344 9.6719 29.6875 9.6719 Q34.4219 9.6719 37.7422 13.6953 Q41.0625 17.7188 41.0625 25.7344 Q41.0625 34.6719 37.8438 38.6016 Q34.625 42.5312 29.5938 42.5312 Q24.7031 42.5312 21.4062 38.6484 Q18.1094 34.7656 18.1094 27.0469 Z"
           id="glyph242069" />
        <glyph
           unicode="l"
           horiz-adv-x="27.783203"
           d="M7.1719 0 L7.1719 71.5781 L20.9062 71.5781 L20.9062 0 L7.1719 0 Z"
           id="glyph242071" />
        <glyph
           unicode="o"
           horiz-adv-x="61.083984"
           d="M4 26.6562 Q4 33.5 7.375 39.8984 Q10.75 46.2969 16.9219 49.6641 Q23.0938 53.0312 30.7188 53.0312 Q42.4844 53.0312 50 45.3906 Q57.5156 37.75 57.5156 26.0781 Q57.5156 14.3125 49.9219 6.5703 Q42.3281 -1.1719 30.8125 -1.1719 Q23.6875 -1.1719 17.2188 2.0547 Q10.75 5.2812 7.375 11.5 Q4 17.7188 4 26.6562 ZM18.0625 25.9219 Q18.0625 18.2188 21.7266 14.1172 Q25.3906 10.0156 30.7656 10.0156 Q36.1406 10.0156 39.7734 14.1172 Q43.4062 18.2188 43.4062 26.0312 Q43.4062 33.6406 39.7734 37.7422 Q36.1406 41.8438 30.7656 41.8438 Q25.3906 41.8438 21.7266 37.7422 Q18.0625 33.6406 18.0625 25.9219 Z"
           id="glyph242073" />
        <glyph
           unicode="s"
           horiz-adv-x="55.615234"
           d="M2.3438 14.7969 L16.1094 16.8906 Q17 12.8906 19.6797 10.8125 Q22.3594 8.7344 27.2031 8.7344 Q32.5156 8.7344 35.2031 10.6875 Q37.0156 12.0625 37.0156 14.3594 Q37.0156 15.9219 36.0312 16.9375 Q35.0156 17.9219 31.4531 18.75 Q14.8438 22.4062 10.4062 25.4375 Q4.25 29.6406 4.25 37.1094 Q4.25 43.8438 9.5703 48.4375 Q14.8906 53.0312 26.0781 53.0312 Q36.7188 53.0312 41.8984 49.5625 Q47.0781 46.0938 49.0312 39.3125 L36.0781 36.9219 Q35.25 39.9375 32.9297 41.5547 Q30.6094 43.1719 26.3125 43.1719 Q20.9062 43.1719 18.5625 41.6562 Q17 40.5781 17 38.875 Q17 37.4062 18.3594 36.375 Q20.2188 35.0156 31.1797 32.5234 Q42.1406 30.0312 46.4844 26.4219 Q50.7812 22.75 50.7812 16.2188 Q50.7812 9.0781 44.8281 3.9531 Q38.875 -1.1719 27.2031 -1.1719 Q16.6094 -1.1719 10.4297 3.125 Q4.25 7.4219 2.3438 14.7969 Z"
           id="glyph242075" />
        <glyph
           unicode="e"
           horiz-adv-x="55.615234"
           d="M37.2031 16.5 L50.875 14.2031 Q48.25 6.6875 42.5547 2.7578 Q36.8594 -1.1719 28.3281 -1.1719 Q14.7969 -1.1719 8.2969 7.6719 Q3.1719 14.75 3.1719 25.5312 Q3.1719 38.4219 9.9141 45.7266 Q16.6562 53.0312 26.9531 53.0312 Q38.5312 53.0312 45.2188 45.3906 Q51.9062 37.75 51.6094 21.9688 L17.2344 21.9688 Q17.3906 15.875 20.5625 12.4766 Q23.7344 9.0781 28.4688 9.0781 Q31.6875 9.0781 33.8828 10.8359 Q36.0781 12.5938 37.2031 16.5 ZM37.9844 30.375 Q37.8438 36.3281 34.9141 39.4297 Q31.9844 42.5312 27.7812 42.5312 Q23.2969 42.5312 20.3594 39.2656 Q17.4375 35.9844 17.4844 30.375 L37.9844 30.375 Z"
           id="glyph242077" />
        <glyph
           unicode="r"
           horiz-adv-x="38.916016"
           d="M20.3125 0 L6.5938 0 L6.5938 51.8594 L19.3438 51.8594 L19.3438 44.4844 Q22.6094 49.7031 25.2188 51.3672 Q27.8281 53.0312 31.1562 53.0312 Q35.8438 53.0312 40.1875 50.4375 L35.9375 38.4844 Q32.4688 40.7188 29.5 40.7188 Q26.6094 40.7188 24.6094 39.1328 Q22.6094 37.5469 21.4609 33.3984 Q20.3125 29.25 20.3125 16.0156 L20.3125 0 Z"
           id="glyph242079" />
        <glyph
           unicode="h"
           horiz-adv-x="61.083984"
           d="M20.8438 71.5781 L20.8438 45.2656 Q27.4844 53.0312 36.7188 53.0312 Q41.4531 53.0312 45.2656 51.2734 Q49.0781 49.5156 51.0078 46.7812 Q52.9375 44.0469 53.6406 40.7266 Q54.3438 37.4062 54.3438 30.4219 L54.3438 0 L40.625 0 L40.625 27.3906 Q40.625 35.5469 39.8438 37.7422 Q39.0625 39.9375 37.0859 41.2344 Q35.1094 42.5312 32.125 42.5312 Q28.7188 42.5312 26.0312 40.8672 Q23.3438 39.2031 22.0938 35.8594 Q20.8438 32.5156 20.8438 25.9844 L20.8438 0 L7.125 0 L7.125 71.5781 L20.8438 71.5781 Z"
           id="glyph242081" />
        <glyph
           unicode="T"
           horiz-adv-x="61.083984"
           d="M23.3906 0 L23.3906 59.4688 L2.1562 59.4688 L2.1562 71.5781 L59.0312 71.5781 L59.0312 59.4688 L37.8438 59.4688 L37.8438 0 L23.3906 0 Z"
           id="glyph242083" />
        <glyph
           unicode="c"
           horiz-adv-x="55.615234"
           d="M52.3906 36.5312 L38.875 34.0781 Q38.1875 38.1406 35.7656 40.1875 Q33.3438 42.2344 29.5 42.2344 Q24.3594 42.2344 21.3125 38.6953 Q18.2656 35.1562 18.2656 26.8594 Q18.2656 17.625 21.3672 13.8203 Q24.4688 10.0156 29.6875 10.0156 Q33.5938 10.0156 36.0859 12.2344 Q38.5781 14.4531 39.5938 19.875 L53.0781 17.5781 Q50.9844 8.2969 45.0234 3.5625 Q39.0625 -1.1719 29.0469 -1.1719 Q17.6719 -1.1719 10.9141 6.0078 Q4.1562 13.1875 4.1562 25.875 Q4.1562 38.7188 10.9375 45.875 Q17.7188 53.0312 29.2969 53.0312 Q38.7656 53.0312 44.3594 48.9531 Q49.9531 44.875 52.3906 36.5312 Z"
           id="glyph242085" />
        <glyph
           unicode="S"
           horiz-adv-x="66.69922"
           d="M3.6094 23.2969 L17.6719 24.6562 Q18.9531 17.5781 22.8281 14.2578 Q26.7031 10.9375 33.2969 10.9375 Q40.2812 10.9375 43.8203 13.8906 Q47.3594 16.8438 47.3594 20.7969 Q47.3594 23.3438 45.875 25.125 Q44.3906 26.9062 40.6719 28.2188 Q38.1406 29.1094 29.1094 31.3438 Q17.4844 34.2344 12.7969 38.4219 Q6.2031 44.3438 6.2031 52.8281 Q6.2031 58.2969 9.3047 63.0625 Q12.4062 67.8281 18.2422 70.3125 Q24.0781 72.7969 32.3281 72.7969 Q45.7969 72.7969 52.6094 66.8906 Q59.4219 60.9844 59.7656 51.125 L45.3125 50.4844 Q44.3906 56 41.3359 58.4219 Q38.2812 60.8438 32.1719 60.8438 Q25.875 60.8438 22.3125 58.25 Q20.0156 56.5938 20.0156 53.8125 Q20.0156 51.2656 22.1719 49.4688 Q24.9062 47.1719 35.4531 44.6797 Q46 42.1875 51.0547 39.5234 Q56.1094 36.8594 58.9609 32.25 Q61.8125 27.6406 61.8125 20.8438 Q61.8125 14.7031 58.3984 9.3281 Q54.9844 3.9531 48.7344 1.3438 Q42.4844 -1.2656 33.1562 -1.2656 Q19.5781 -1.2656 12.3047 5.0078 Q5.0312 11.2812 3.6094 23.2969 Z"
           id="glyph242087" />
        <glyph
           unicode="-"
           horiz-adv-x="33.30078"
           d="M5.6094 19.0938 L5.6094 32.8125 L32.5625 32.8125 L32.5625 19.0938 L5.6094 19.0938 Z"
           id="glyph242089" />
        <glyph
           unicode="F"
           horiz-adv-x="61.083984"
           d="M7.375 0 L7.375 71.5781 L56.4531 71.5781 L56.4531 59.4688 L21.8281 59.4688 L21.8281 42.5312 L51.7031 42.5312 L51.7031 30.4219 L21.8281 30.4219 L21.8281 0 L7.375 0 Z"
           id="glyph242091" />
      </font>
      <font
         horiz-adv-x="75.0"
         id="font2">
        <font-face
           ascent="100.53711"
           descent="21.972656"
           units-per-em="100"
           style="font-style:normal; font-family:Dialog; font-weight:normal;"
           id="font-face242094" />
        <missing-glyph
           horiz-adv-x="75.0"
           d="M12.5 0 L12.5 62.5 L62.5 62.5 L62.5 0 L12.5 0 ZM14.0625 1.5625 L60.9375 1.5625 L60.9375 60.9375 L14.0625 60.9375 L14.0625 1.5625 Z"
           id="missing-glyph242096" />
        <glyph
           unicode="0"
           horiz-adv-x="55.615234"
           d="M4.1562 35.2969 Q4.1562 48 6.7656 55.7422 Q9.375 63.4844 14.5234 67.6797 Q19.6719 71.875 27.4844 71.875 Q33.25 71.875 37.5938 69.5547 Q41.9375 67.2344 44.7734 62.8672 Q47.6094 58.5 49.2188 52.2266 Q50.8281 45.9531 50.8281 35.2969 Q50.8281 22.7031 48.2422 14.9688 Q45.6562 7.2344 40.5078 3.0078 Q35.3594 -1.2188 27.4844 -1.2188 Q17.1406 -1.2188 11.2344 6.2031 Q4.1562 15.1406 4.1562 35.2969 ZM13.1875 35.2969 Q13.1875 17.6719 17.3125 11.8359 Q21.4375 6 27.4844 6 Q33.5469 6 37.6719 11.8594 Q41.7969 17.7188 41.7969 35.2969 Q41.7969 52.9844 37.6719 58.7891 Q33.5469 64.5938 27.3906 64.5938 Q21.3438 64.5938 17.7188 59.4688 Q13.1875 52.9375 13.1875 35.2969 Z"
           id="glyph242098" />
        <glyph
           unicode="1"
           horiz-adv-x="55.615234"
           d="M37.25 0 L28.4688 0 L28.4688 56 Q25.2969 52.9844 20.1406 49.9531 Q14.9844 46.9219 10.8906 45.4062 L10.8906 53.9062 Q18.2656 57.375 23.7812 62.3047 Q29.2969 67.2344 31.5938 71.875 L37.25 71.875 L37.25 0 Z"
           id="glyph242100" />
        <glyph
           unicode="."
           horiz-adv-x="27.783203"
           d="M9.0781 0 L9.0781 10.0156 L19.0938 10.0156 L19.0938 0 L9.0781 0 Z"
           id="glyph242102" />
        <glyph
           unicode="2"
           horiz-adv-x="55.615234"
           d="M50.3438 8.4531 L50.3438 0 L3.0312 0 Q2.9375 3.1719 4.0469 6.1094 Q5.8594 10.9375 9.8359 15.625 Q13.8125 20.3125 21.3438 26.4688 Q33.0156 36.0312 37.1172 41.625 Q41.2188 47.2188 41.2188 52.2031 Q41.2188 57.4219 37.4766 61.0078 Q33.7344 64.5938 27.7344 64.5938 Q21.3906 64.5938 17.5781 60.7891 Q13.7656 56.9844 13.7188 50.25 L4.6875 51.1719 Q5.6094 61.2812 11.6641 66.5781 Q17.7188 71.875 27.9375 71.875 Q38.2344 71.875 44.2422 66.1641 Q50.25 60.4531 50.25 52 Q50.25 47.7031 48.4922 43.5547 Q46.7344 39.4062 42.6562 34.8125 Q38.5781 30.2188 29.1094 22.2188 Q21.1875 15.5781 18.9453 13.2109 Q16.7031 10.8438 15.2344 8.4531 L50.3438 8.4531 Z"
           id="glyph242104" />
        <glyph
           unicode="3"
           horiz-adv-x="55.615234"
           d="M4.2031 18.8906 L12.9844 20.0625 Q14.5 12.5938 18.1406 9.2969 Q21.7812 6 27 6 Q33.2031 6 37.4766 10.2969 Q41.75 14.5938 41.75 20.9531 Q41.75 27 37.7969 30.9297 Q33.8438 34.8594 27.7344 34.8594 Q25.25 34.8594 21.5312 33.8906 L22.5156 41.6094 Q23.3906 41.5 23.9219 41.5 Q29.5469 41.5 34.0391 44.4297 Q38.5312 47.3594 38.5312 53.4688 Q38.5312 58.2969 35.2578 61.4766 Q31.9844 64.6562 26.8125 64.6562 Q21.6875 64.6562 18.2656 61.4297 Q14.8438 58.2031 13.875 51.7656 L5.0781 53.3281 Q6.6875 62.1562 12.3984 67.0156 Q18.1094 71.875 26.6094 71.875 Q32.4688 71.875 37.3984 69.3594 Q42.3281 66.8438 44.9453 62.5 Q47.5625 58.1562 47.5625 53.2656 Q47.5625 48.6406 45.0703 44.8281 Q42.5781 41.0156 37.7031 38.7656 Q44.0469 37.3125 47.5625 32.6953 Q51.0781 28.0781 51.0781 21.1406 Q51.0781 11.7656 44.2422 5.25 Q37.4062 -1.2656 26.9531 -1.2656 Q17.5312 -1.2656 11.3047 4.3516 Q5.0781 9.9688 4.2031 18.8906 Z"
           id="glyph242106" />
        <glyph
           unicode="4"
           horiz-adv-x="55.615234"
           d="M32.3281 0 L32.3281 17.1406 L1.2656 17.1406 L1.2656 25.2031 L33.9375 71.5781 L41.1094 71.5781 L41.1094 25.2031 L50.7812 25.2031 L50.7812 17.1406 L41.1094 17.1406 L41.1094 0 L32.3281 0 ZM32.3281 25.2031 L32.3281 57.4688 L9.9062 25.2031 L32.3281 25.2031 Z"
           id="glyph242108" />
        <glyph
           unicode="5"
           horiz-adv-x="55.615234"
           d="M4.1562 18.75 L13.375 19.5312 Q14.4062 12.7969 18.1406 9.3984 Q21.875 6 27.1562 6 Q33.5 6 37.8906 10.7891 Q42.2812 15.5781 42.2812 23.4844 Q42.2812 31 38.0625 35.3516 Q33.8438 39.7031 27 39.7031 Q22.75 39.7031 19.3359 37.7734 Q15.9219 35.8438 13.9688 32.7656 L5.7188 33.8438 L12.6406 70.6094 L48.25 70.6094 L48.25 62.2031 L19.6719 62.2031 L15.8281 42.9688 Q22.2656 47.4688 29.3438 47.4688 Q38.7188 47.4688 45.1641 40.9688 Q51.6094 34.4688 51.6094 24.2656 Q51.6094 14.5469 45.9531 7.4688 Q39.0625 -1.2188 27.1562 -1.2188 Q17.3906 -1.2188 11.2109 4.25 Q5.0312 9.7188 4.1562 18.75 Z"
           id="glyph242110" />
        <glyph
           unicode="6"
           horiz-adv-x="55.615234"
           d="M49.75 54.0469 L41.0156 53.375 Q39.8438 58.5469 37.7031 60.8906 Q34.125 64.6562 28.9062 64.6562 Q24.7031 64.6562 21.5312 62.3125 Q17.3906 59.2812 14.9922 53.4688 Q12.5938 47.6562 12.5 36.9219 Q15.6719 41.75 20.2656 44.0938 Q24.8594 46.4375 29.8906 46.4375 Q38.6719 46.4375 44.8516 39.9688 Q51.0312 33.5 51.0312 23.25 Q51.0312 16.5 48.125 10.7188 Q45.2188 4.9375 40.1406 1.8594 Q35.0625 -1.2188 28.6094 -1.2188 Q17.625 -1.2188 10.6953 6.8594 Q3.7656 14.9375 3.7656 33.5 Q3.7656 54.25 11.4219 63.6719 Q18.1094 71.875 29.4375 71.875 Q37.8906 71.875 43.2891 67.1406 Q48.6875 62.4062 49.75 54.0469 ZM13.875 23.1875 Q13.875 18.6562 15.7969 14.5078 Q17.7188 10.3594 21.1875 8.1797 Q24.6562 6 28.4688 6 Q34.0312 6 38.0391 10.4922 Q42.0469 14.9844 42.0469 22.7031 Q42.0469 30.125 38.0859 34.3984 Q34.125 38.6719 28.125 38.6719 Q22.1719 38.6719 18.0234 34.3984 Q13.875 30.125 13.875 23.1875 Z"
           id="glyph242112" />
        <glyph
           unicode="7"
           horiz-adv-x="55.615234"
           d="M4.7344 62.2031 L4.7344 70.6562 L51.0781 70.6562 L51.0781 63.8125 Q44.2344 56.5469 37.5234 44.4844 Q30.8125 32.4219 27.1562 19.6719 Q24.5156 10.6875 23.7812 0 L14.75 0 Q14.8906 8.4531 18.0625 20.4141 Q21.2344 32.375 27.1719 43.4844 Q33.1094 54.5938 39.7969 62.2031 L4.7344 62.2031 Z"
           id="glyph242114" />
        <glyph
           unicode="8"
           horiz-adv-x="55.615234"
           d="M17.6719 38.8125 Q12.2031 40.8281 9.5703 44.5391 Q6.9375 48.25 6.9375 53.4219 Q6.9375 61.2344 12.5547 66.5547 Q18.1719 71.875 27.4844 71.875 Q36.8594 71.875 42.5781 66.4297 Q48.2969 60.9844 48.2969 53.1719 Q48.2969 48.1875 45.6797 44.5078 Q43.0625 40.8281 37.75 38.8125 Q44.3438 36.6719 47.7812 31.8828 Q51.2188 27.0938 51.2188 20.4531 Q51.2188 11.2812 44.7266 5.0312 Q38.2344 -1.2188 27.6406 -1.2188 Q17.0469 -1.2188 10.5469 5.0547 Q4.0469 11.3281 4.0469 20.7031 Q4.0469 27.6875 7.5938 32.3984 Q11.1406 37.1094 17.6719 38.8125 ZM15.9219 53.7188 Q15.9219 48.6406 19.1953 45.4141 Q22.4688 42.1875 27.6875 42.1875 Q32.7656 42.1875 36.0156 45.3828 Q39.2656 48.5781 39.2656 53.2188 Q39.2656 58.0625 35.9141 61.3594 Q32.5625 64.6562 27.5938 64.6562 Q22.5625 64.6562 19.2422 61.4297 Q15.9219 58.2031 15.9219 53.7188 ZM13.0938 20.6562 Q13.0938 16.8906 14.875 13.375 Q16.6562 9.8594 20.1719 7.9297 Q23.6875 6 27.7344 6 Q34.0312 6 38.1328 10.0547 Q42.2344 14.1094 42.2344 20.3594 Q42.2344 26.7031 38.0156 30.8594 Q33.7969 35.0156 27.4375 35.0156 Q21.2344 35.0156 17.1641 30.9141 Q13.0938 26.8125 13.0938 20.6562 Z"
           id="glyph242116" />
        <glyph
           unicode="9"
           horiz-adv-x="55.615234"
           d="M5.4688 16.5469 L13.9219 17.3281 Q14.9844 11.375 18.0156 8.6875 Q21.0469 6 25.7812 6 Q29.8281 6 32.8828 7.8594 Q35.9375 9.7188 37.8906 12.8203 Q39.8438 15.9219 41.1641 21.1953 Q42.4844 26.4688 42.4844 31.9375 Q42.4844 32.5156 42.4375 33.6875 Q39.7969 29.5 35.2344 26.8828 Q30.6719 24.2656 25.3438 24.2656 Q16.4531 24.2656 10.3047 30.7109 Q4.1562 37.1562 4.1562 47.7031 Q4.1562 58.5938 10.5781 65.2344 Q17 71.875 26.6562 71.875 Q33.6406 71.875 39.4297 68.1172 Q45.2188 64.3594 48.2188 57.3984 Q51.2188 50.4375 51.2188 37.25 Q51.2188 23.5312 48.2422 15.4062 Q45.2656 7.2812 39.3828 3.0312 Q33.5 -1.2188 25.5938 -1.2188 Q17.1875 -1.2188 11.8672 3.4453 Q6.5469 8.1094 5.4688 16.5469 ZM41.4531 48.1406 Q41.4531 55.7188 37.4297 60.1562 Q33.4062 64.5938 27.7344 64.5938 Q21.875 64.5938 17.5312 59.8125 Q13.1875 55.0312 13.1875 47.4062 Q13.1875 40.5781 17.3125 36.3047 Q21.4375 32.0312 27.4844 32.0312 Q33.5938 32.0312 37.5234 36.3047 Q41.4531 40.5781 41.4531 48.1406 Z"
           id="glyph242118" />
      </font>
    </defs>
    <g
       style="fill:rgb(38,38,38); text-rendering:geometricPrecision; image-rendering:optimizeQuality; color-rendering:optimizeQuality; stroke-linejoin:round; stroke:rgb(38,38,38); color-interpolation:linearRGB; stroke-width:0.6667;"
       id="g242146"
       inkscape:label="X Axis Lines">
      <line
         y2="579"
         style="fill:none;"
         x1="109"
         x2="757"
         y1="579"
         id="line242132" />
      <line
         y2="572.52"
         style="fill:none;"
         x1="205.7164"
         x2="205.7164"
         y1="579"
         id="line242134" />
      <line
         y2="572.52"
         style="fill:none;"
         x1="307.5232"
         x2="307.5232"
         y1="579"
         id="line242136" />
      <line
         y2="572.52"
         style="fill:none;"
         x1="409.3299"
         x2="409.3299"
         y1="579"
         id="line242138" />
      <line
         y2="572.52"
         style="fill:none;"
         x1="511.1367"
         x2="511.1367"
         y1="579"
         id="line242140" />
      <line
         y2="572.52"
         style="fill:none;"
         x1="612.9434"
         x2="612.9434"
         y1="579"
         id="line242142" />
      <line
         y2="572.52"
         style="fill:none;"
         x1="714.7502"
         x2="714.7502"
         y1="579"
         id="line242144" />
      <line
         y2="579"
         style="fill-opacity:1;color-rendering:optimizeQuality;color-interpolation:linearRGB;text-rendering:geometricPrecision;stroke:#262626;stroke-linecap:square;stroke-miterlimit:10;shape-rendering:auto;stroke-opacity:1;fill:none;stroke-dasharray:none;font-weight:normal;stroke-width:0.6667;font-family:'Dialog';font-style:normal;stroke-linejoin:round;font-size:12px;stroke-dashoffset:0;image-rendering:optimizeQuality"
         x1="109"
         x2="757"
         y1="579"
         id="line242371"
         transform="matrix(1,0,0,-1,0,628.02035)" />
      <line
         y2="572.52002"
         style="fill-opacity:1;color-rendering:optimizeQuality;color-interpolation:linearRGB;text-rendering:geometricPrecision;stroke:#262626;stroke-linecap:square;stroke-miterlimit:10;shape-rendering:auto;stroke-opacity:1;fill:none;stroke-dasharray:none;font-weight:normal;stroke-width:0.6667;font-family:'Dialog';font-style:normal;stroke-linejoin:round;font-size:12px;stroke-dashoffset:0;image-rendering:optimizeQuality"
         x1="205.7164"
         x2="205.7164"
         y1="579"
         id="line242373"
         transform="matrix(1,0,0,-1,0,628.02035)" />
      <line
         y2="572.52002"
         style="fill-opacity:1;color-rendering:optimizeQuality;color-interpolation:linearRGB;text-rendering:geometricPrecision;stroke:#262626;stroke-linecap:square;stroke-miterlimit:10;shape-rendering:auto;stroke-opacity:1;fill:none;stroke-dasharray:none;font-weight:normal;stroke-width:0.6667;font-family:'Dialog';font-style:normal;stroke-linejoin:round;font-size:12px;stroke-dashoffset:0;image-rendering:optimizeQuality"
         x1="307.52319"
         x2="307.52319"
         y1="579"
         id="line242375"
         transform="matrix(1,0,0,-1,0,628.02035)" />
      <line
         y2="572.52002"
         style="fill-opacity:1;color-rendering:optimizeQuality;color-interpolation:linearRGB;text-rendering:geometricPrecision;stroke:#262626;stroke-linecap:square;stroke-miterlimit:10;shape-rendering:auto;stroke-opacity:1;fill:none;stroke-dasharray:none;font-weight:normal;stroke-width:0.6667;font-family:'Dialog';font-style:normal;stroke-linejoin:round;font-size:12px;stroke-dashoffset:0;image-rendering:optimizeQuality"
         x1="409.3299"
         x2="409.3299"
         y1="579"
         id="line242377"
         transform="matrix(1,0,0,-1,0,628.02035)" />
      <line
         y2="572.52002"
         style="fill-opacity:1;color-rendering:optimizeQuality;color-interpolation:linearRGB;text-rendering:geometricPrecision;stroke:#262626;stroke-linecap:square;stroke-miterlimit:10;shape-rendering:auto;stroke-opacity:1;fill:none;stroke-dasharray:none;font-weight:normal;stroke-width:0.6667;font-family:'Dialog';font-style:normal;stroke-linejoin:round;font-size:12px;stroke-dashoffset:0;image-rendering:optimizeQuality"
         x1="511.13669"
         x2="511.13669"
         y1="579"
         id="line242379"
         transform="matrix(1,0,0,-1,0,628.02035)" />
      <line
         y2="572.52002"
         style="fill-opacity:1;color-rendering:optimizeQuality;color-interpolation:linearRGB;text-rendering:geometricPrecision;stroke:#262626;stroke-linecap:square;stroke-miterlimit:10;shape-rendering:auto;stroke-opacity:1;fill:none;stroke-dasharray:none;font-weight:normal;stroke-width:0.6667;font-family:'Dialog';font-style:normal;stroke-linejoin:round;font-size:12px;stroke-dashoffset:0;image-rendering:optimizeQuality"
         x1="612.94342"
         x2="612.94342"
         y1="579"
         id="line242381"
         transform="matrix(1,0,0,-1,0,628.02035)" />
      <line
         y2="572.52002"
         style="fill-opacity:1;color-rendering:optimizeQuality;color-interpolation:linearRGB;text-rendering:geometricPrecision;stroke:#262626;stroke-linecap:square;stroke-miterlimit:10;shape-rendering:auto;stroke-opacity:1;fill:none;stroke-dasharray:none;font-weight:normal;stroke-width:0.6667;font-family:'Dialog';font-style:normal;stroke-linejoin:round;font-size:12px;stroke-dashoffset:0;image-rendering:optimizeQuality"
         x1="714.75018"
         x2="714.75018"
         y1="579"
         id="line242383"
         transform="matrix(1,0,0,-1,0,628.02035)" />
    </g>
    <g
       style="fill:rgb(38,38,38); text-rendering:geometricPrecision; image-rendering:optimizeQuality; color-rendering:optimizeQuality; stroke-linejoin:round; stroke:rgb(38,38,38); color-interpolation:linearRGB; stroke-width:0.6667;"
       id="g242176"
       inkscape:label="Y Axis Lines">
      <line
         y2="49"
         style="fill:none;"
         x1="109"
         x2="109"
         y1="579"
         id="line242152" />
      <line
         y2="579"
         style="fill:none;"
         x1="109"
         x2="115.48"
         y1="579"
         id="line242154" />
      <line
         y2="526"
         style="fill:none;"
         x1="109"
         x2="115.48"
         y1="526"
         id="line242156" />
      <line
         y2="473"
         style="fill:none;"
         x1="109"
         x2="115.48"
         y1="473"
         id="line242158" />
      <line
         y2="420"
         style="fill:none;"
         x1="109"
         x2="115.48"
         y1="420"
         id="line242160" />
      <line
         y2="367"
         style="fill:none;"
         x1="109"
         x2="115.48"
         y1="367"
         id="line242162" />
      <line
         y2="314"
         style="fill:none;"
         x1="109"
         x2="115.48"
         y1="314"
         id="line242164" />
      <line
         y2="261"
         style="fill:none;"
         x1="109"
         x2="115.48"
         y1="261"
         id="line242166" />
      <line
         y2="208"
         style="fill:none;"
         x1="109"
         x2="115.48"
         y1="208"
         id="line242168" />
      <line
         y2="155"
         style="fill:none;"
         x1="109"
         x2="115.48"
         y1="155"
         id="line242170" />
      <line
         y2="102"
         style="fill:none;"
         x1="109"
         x2="115.48"
         y1="102"
         id="line242172" />
      <line
         y2="49"
         style="fill:none;"
         x1="109"
         x2="115.48"
         y1="49"
         id="line242174" />
      <line
         y2="49"
         style="fill-opacity:1;color-rendering:optimizeQuality;color-interpolation:linearRGB;text-rendering:geometricPrecision;stroke:#262626;stroke-linecap:square;stroke-miterlimit:10;shape-rendering:auto;stroke-opacity:1;fill:none;stroke-dasharray:none;font-weight:normal;stroke-width:0.6667;font-family:'Dialog';font-style:normal;stroke-linejoin:round;font-size:12px;stroke-dashoffset:0;image-rendering:optimizeQuality"
         x1="109"
         x2="109"
         y1="579"
         id="line242499"
         transform="matrix(-1,0,0,1,866.08035,0)" />
      <line
         y2="579"
         style="fill-opacity:1;color-rendering:optimizeQuality;color-interpolation:linearRGB;text-rendering:geometricPrecision;stroke:#262626;stroke-linecap:square;stroke-miterlimit:10;shape-rendering:auto;stroke-opacity:1;fill:none;stroke-dasharray:none;font-weight:normal;stroke-width:0.6667;font-family:'Dialog';font-style:normal;stroke-linejoin:round;font-size:12px;stroke-dashoffset:0;image-rendering:optimizeQuality"
         x1="109"
         x2="115.48"
         y1="579"
         id="line242501"
         transform="matrix(-1,0,0,1,866.08035,0)" />
      <line
         y2="526"
         style="fill-opacity:1;color-rendering:optimizeQuality;color-interpolation:linearRGB;text-rendering:geometricPrecision;stroke:#262626;stroke-linecap:square;stroke-miterlimit:10;shape-rendering:auto;stroke-opacity:1;fill:none;stroke-dasharray:none;font-weight:normal;stroke-width:0.6667;font-family:'Dialog';font-style:normal;stroke-linejoin:round;font-size:12px;stroke-dashoffset:0;image-rendering:optimizeQuality"
         x1="109"
         x2="115.48"
         y1="526"
         id="line242503"
         transform="matrix(-1,0,0,1,866.08035,0)" />
      <line
         y2="473"
         style="fill-opacity:1;color-rendering:optimizeQuality;color-interpolation:linearRGB;text-rendering:geometricPrecision;stroke:#262626;stroke-linecap:square;stroke-miterlimit:10;shape-rendering:auto;stroke-opacity:1;fill:none;stroke-dasharray:none;font-weight:normal;stroke-width:0.6667;font-family:'Dialog';font-style:normal;stroke-linejoin:round;font-size:12px;stroke-dashoffset:0;image-rendering:optimizeQuality"
         x1="109"
         x2="115.48"
         y1="473"
         id="line242505"
         transform="matrix(-1,0,0,1,866.08035,0)" />
      <line
         y2="420"
         style="fill-opacity:1;color-rendering:optimizeQuality;color-interpolation:linearRGB;text-rendering:geometricPrecision;stroke:#262626;stroke-linecap:square;stroke-miterlimit:10;shape-rendering:auto;stroke-opacity:1;fill:none;stroke-dasharray:none;font-weight:normal;stroke-width:0.6667;font-family:'Dialog';font-style:normal;stroke-linejoin:round;font-size:12px;stroke-dashoffset:0;image-rendering:optimizeQuality"
         x1="109"
         x2="115.48"
         y1="420"
         id="line242507"
         transform="matrix(-1,0,0,1,866.08035,0)" />
      <line
         y2="367"
         style="fill-opacity:1;color-rendering:optimizeQuality;color-interpolation:linearRGB;text-rendering:geometricPrecision;stroke:#262626;stroke-linecap:square;stroke-miterlimit:10;shape-rendering:auto;stroke-opacity:1;fill:none;stroke-dasharray:none;font-weight:normal;stroke-width:0.6667;font-family:'Dialog';font-style:normal;stroke-linejoin:round;font-size:12px;stroke-dashoffset:0;image-rendering:optimizeQuality"
         x1="109"
         x2="115.48"
         y1="367"
         id="line242509"
         transform="matrix(-1,0,0,1,866.08035,0)" />
      <line
         y2="314"
         style="fill-opacity:1;color-rendering:optimizeQuality;color-interpolation:linearRGB;text-rendering:geometricPrecision;stroke:#262626;stroke-linecap:square;stroke-miterlimit:10;shape-rendering:auto;stroke-opacity:1;fill:none;stroke-dasharray:none;font-weight:normal;stroke-width:0.6667;font-family:'Dialog';font-style:normal;stroke-linejoin:round;font-size:12px;stroke-dashoffset:0;image-rendering:optimizeQuality"
         x1="109"
         x2="115.48"
         y1="314"
         id="line242511"
         transform="matrix(-1,0,0,1,866.08035,0)" />
      <line
         y2="261"
         style="fill-opacity:1;color-rendering:optimizeQuality;color-interpolation:linearRGB;text-rendering:geometricPrecision;stroke:#262626;stroke-linecap:square;stroke-miterlimit:10;shape-rendering:auto;stroke-opacity:1;fill:none;stroke-dasharray:none;font-weight:normal;stroke-width:0.6667;font-family:'Dialog';font-style:normal;stroke-linejoin:round;font-size:12px;stroke-dashoffset:0;image-rendering:optimizeQuality"
         x1="109"
         x2="115.48"
         y1="261"
         id="line242513"
         transform="matrix(-1,0,0,1,866.08035,0)" />
      <line
         y2="208"
         style="fill-opacity:1;color-rendering:optimizeQuality;color-interpolation:linearRGB;text-rendering:geometricPrecision;stroke:#262626;stroke-linecap:square;stroke-miterlimit:10;shape-rendering:auto;stroke-opacity:1;fill:none;stroke-dasharray:none;font-weight:normal;stroke-width:0.6667;font-family:'Dialog';font-style:normal;stroke-linejoin:round;font-size:12px;stroke-dashoffset:0;image-rendering:optimizeQuality"
         x1="109"
         x2="115.48"
         y1="208"
         id="line242515"
         transform="matrix(-1,0,0,1,866.08035,0)" />
      <line
         y2="155"
         style="fill-opacity:1;color-rendering:optimizeQuality;color-interpolation:linearRGB;text-rendering:geometricPrecision;stroke:#262626;stroke-linecap:square;stroke-miterlimit:10;shape-rendering:auto;stroke-opacity:1;fill:none;stroke-dasharray:none;font-weight:normal;stroke-width:0.6667;font-family:'Dialog';font-style:normal;stroke-linejoin:round;font-size:12px;stroke-dashoffset:0;image-rendering:optimizeQuality"
         x1="109"
         x2="115.48"
         y1="155"
         id="line242517"
         transform="matrix(-1,0,0,1,866.08035,0)" />
      <line
         y2="102"
         style="fill-opacity:1;color-rendering:optimizeQuality;color-interpolation:linearRGB;text-rendering:geometricPrecision;stroke:#262626;stroke-linecap:square;stroke-miterlimit:10;shape-rendering:auto;stroke-opacity:1;fill:none;stroke-dasharray:none;font-weight:normal;stroke-width:0.6667;font-family:'Dialog';font-style:normal;stroke-linejoin:round;font-size:12px;stroke-dashoffset:0;image-rendering:optimizeQuality"
         x1="109"
         x2="115.48"
         y1="102"
         id="line242519"
         transform="matrix(-1,0,0,1,866.08035,0)" />
      <line
         y2="49"
         style="fill-opacity:1;color-rendering:optimizeQuality;color-interpolation:linearRGB;text-rendering:geometricPrecision;stroke:#262626;stroke-linecap:square;stroke-miterlimit:10;shape-rendering:auto;stroke-opacity:1;fill:none;stroke-dasharray:none;font-weight:normal;stroke-width:0.6667;font-family:'Dialog';font-style:normal;stroke-linejoin:round;font-size:12px;stroke-dashoffset:0;image-rendering:optimizeQuality"
         x1="109"
         x2="115.48"
         y1="49"
         id="line242521"
         transform="matrix(-1,0,0,1,866.08035,0)" />
    </g>
    <text
       x="-66"
       xml:space="preserve"
       y="18"
       style="fill-opacity:1;color-rendering:optimizeQuality;color-interpolation:linearRGB;text-rendering:geometricPrecision;stroke:none;stroke-linecap:square;stroke-miterlimit:10;shape-rendering:auto;stroke-opacity:1;fill:rgb(38, 38, 38);stroke-dasharray:none;font-weight:bold;stroke-width:1;font-family:'Dialog';font-style:normal;stroke-linejoin:miter;font-size:17.6px;stroke-dashoffset:0;image-rendering:optimizeQuality"
       id="text242148"
       inkscape:label="X Label"
       transform="translate(433.0003,584.8666)">Threshold (a.u.)</text>
    <g
       id="g242788"
       inkscape:label="Y Tick Labels"
       style="fill-opacity:1;color-rendering:optimizeQuality;color-interpolation:linearRGB;text-rendering:geometricPrecision;stroke:rgb(38, 38, 38);stroke-linecap:square;stroke-miterlimit:10;shape-rendering:auto;stroke-opacity:1;fill:rgb(38, 38, 38);stroke-dasharray:none;font-weight:normal;stroke-width:1;font-family:'Dialog';font-style:normal;stroke-linejoin:miter;font-size:16px;stroke-dashoffset:0;image-rendering:optimizeQuality"
       transform="translate(103.1333,49)">
      <text
         x="-9"
         xml:space="preserve"
         y="6.5"
         style="fill-opacity:1;color-rendering:optimizeQuality;color-interpolation:linearRGB;text-rendering:geometricPrecision;stroke:none;stroke-linecap:square;stroke-miterlimit:10;shape-rendering:auto;stroke-opacity:1;fill:rgb(38, 38, 38);stroke-dasharray:none;font-weight:normal;stroke-width:1;font-family:'Dialog';font-style:normal;stroke-linejoin:miter;font-size:16px;stroke-dashoffset:0;image-rendering:optimizeQuality"
         id="text242178"
         transform="translate(0,530)">0</text>
      <text
         x="-23"
         xml:space="preserve"
         y="6.5"
         style="fill-opacity:1;color-rendering:optimizeQuality;color-interpolation:linearRGB;text-rendering:geometricPrecision;stroke:none;stroke-linecap:square;stroke-miterlimit:10;shape-rendering:auto;stroke-opacity:1;fill:rgb(38, 38, 38);stroke-dasharray:none;font-weight:normal;stroke-width:1;font-family:'Dialog';font-style:normal;stroke-linejoin:miter;font-size:16px;stroke-dashoffset:0;image-rendering:optimizeQuality"
         id="text242182"
         transform="translate(0,477)">0.1</text>
      <text
         x="-23"
         xml:space="preserve"
         y="6.5"
         style="fill-opacity:1;color-rendering:optimizeQuality;color-interpolation:linearRGB;text-rendering:geometricPrecision;stroke:none;stroke-linecap:square;stroke-miterlimit:10;shape-rendering:auto;stroke-opacity:1;fill:rgb(38, 38, 38);stroke-dasharray:none;font-weight:normal;stroke-width:1;font-family:'Dialog';font-style:normal;stroke-linejoin:miter;font-size:16px;stroke-dashoffset:0;image-rendering:optimizeQuality"
         id="text242186"
         transform="translate(0,424)">0.2</text>
      <text
         x="-23"
         xml:space="preserve"
         y="6.5"
         style="fill-opacity:1;color-rendering:optimizeQuality;color-interpolation:linearRGB;text-rendering:geometricPrecision;stroke:none;stroke-linecap:square;stroke-miterlimit:10;shape-rendering:auto;stroke-opacity:1;fill:rgb(38, 38, 38);stroke-dasharray:none;font-weight:normal;stroke-width:1;font-family:'Dialog';font-style:normal;stroke-linejoin:miter;font-size:16px;stroke-dashoffset:0;image-rendering:optimizeQuality"
         id="text242190"
         transform="translate(0,371)">0.3</text>
      <text
         x="-23"
         xml:space="preserve"
         y="6.5"
         style="fill-opacity:1;color-rendering:optimizeQuality;color-interpolation:linearRGB;text-rendering:geometricPrecision;stroke:none;stroke-linecap:square;stroke-miterlimit:10;shape-rendering:auto;stroke-opacity:1;fill:rgb(38, 38, 38);stroke-dasharray:none;font-weight:normal;stroke-width:1;font-family:'Dialog';font-style:normal;stroke-linejoin:miter;font-size:16px;stroke-dashoffset:0;image-rendering:optimizeQuality"
         id="text242194"
         transform="translate(0,318)">0.4</text>
      <text
         x="-23"
         xml:space="preserve"
         y="6.5"
         style="fill-opacity:1;color-rendering:optimizeQuality;color-interpolation:linearRGB;text-rendering:geometricPrecision;stroke:none;stroke-linecap:square;stroke-miterlimit:10;shape-rendering:auto;stroke-opacity:1;fill:rgb(38, 38, 38);stroke-dasharray:none;font-weight:normal;stroke-width:1;font-family:'Dialog';font-style:normal;stroke-linejoin:miter;font-size:16px;stroke-dashoffset:0;image-rendering:optimizeQuality"
         id="text242198"
         transform="translate(0,265)">0.5</text>
      <text
         x="-23"
         xml:space="preserve"
         y="6.5"
         style="fill-opacity:1;color-rendering:optimizeQuality;color-interpolation:linearRGB;text-rendering:geometricPrecision;stroke:none;stroke-linecap:square;stroke-miterlimit:10;shape-rendering:auto;stroke-opacity:1;fill:rgb(38, 38, 38);stroke-dasharray:none;font-weight:normal;stroke-width:1;font-family:'Dialog';font-style:normal;stroke-linejoin:miter;font-size:16px;stroke-dashoffset:0;image-rendering:optimizeQuality"
         id="text242202"
         transform="translate(0,212)">0.6</text>
      <text
         x="-23"
         xml:space="preserve"
         y="6.5"
         style="fill-opacity:1;color-rendering:optimizeQuality;color-interpolation:linearRGB;text-rendering:geometricPrecision;stroke:none;stroke-linecap:square;stroke-miterlimit:10;shape-rendering:auto;stroke-opacity:1;fill:rgb(38, 38, 38);stroke-dasharray:none;font-weight:normal;stroke-width:1;font-family:'Dialog';font-style:normal;stroke-linejoin:miter;font-size:16px;stroke-dashoffset:0;image-rendering:optimizeQuality"
         id="text242206"
         transform="translate(0,159)">0.7</text>
      <text
         x="-23"
         xml:space="preserve"
         y="6.5"
         style="fill-opacity:1;color-rendering:optimizeQuality;color-interpolation:linearRGB;text-rendering:geometricPrecision;stroke:none;stroke-linecap:square;stroke-miterlimit:10;shape-rendering:auto;stroke-opacity:1;fill:rgb(38, 38, 38);stroke-dasharray:none;font-weight:normal;stroke-width:1;font-family:'Dialog';font-style:normal;stroke-linejoin:miter;font-size:16px;stroke-dashoffset:0;image-rendering:optimizeQuality"
         id="text242210"
         transform="translate(0,106)">0.8</text>
      <text
         x="-23"
         xml:space="preserve"
         y="6.5"
         style="fill-opacity:1;color-rendering:optimizeQuality;color-interpolation:linearRGB;text-rendering:geometricPrecision;stroke:none;stroke-linecap:square;stroke-miterlimit:10;shape-rendering:auto;stroke-opacity:1;fill:rgb(38, 38, 38);stroke-dasharray:none;font-weight:normal;stroke-width:1;font-family:'Dialog';font-style:normal;stroke-linejoin:miter;font-size:16px;stroke-dashoffset:0;image-rendering:optimizeQuality"
         id="text242214"
         transform="translate(0,53)">0.9</text>
      <text
         x="-9"
         xml:space="preserve"
         y="6.5"
         style="stroke:none;"
         id="text242218">1</text>
    </g>
    <text
       x="-33"
       xml:space="preserve"
       y="-4"
       style="fill-opacity:1;color-rendering:optimizeQuality;color-interpolation:linearRGB;text-rendering:geometricPrecision;stroke:none;stroke-linecap:square;stroke-miterlimit:10;shape-rendering:auto;stroke-opacity:1;fill:rgb(38, 38, 38);stroke-dasharray:none;font-weight:bold;stroke-width:1;font-family:'Dialog';font-style:normal;stroke-linejoin:miter;font-size:17.6px;stroke-dashoffset:0;image-rendering:optimizeQuality"
       id="text242222"
       inkscape:label="Y Label"
       transform="rotate(-90,195.06655,118.93325)">F-Score</text>
    <path
       style="fill-opacity:1;color-rendering:optimizeSpeed;color-interpolation:sRGB;text-rendering:optimizeSpeed;stroke:none;stroke-linecap:square;stroke-miterlimit:10;shape-rendering:crispEdges;stroke-opacity:1;fill:rgb(221, 175, 175);stroke-dasharray:none;font-weight:normal;stroke-width:1;font-family:'Dialog';font-style:normal;stroke-linejoin:miter;font-size:12px;stroke-dashoffset:0;image-rendering:optimizeSpeed"
       d="M151.675 579 L196.5759 579 L196.5759 49 L151.675 49 Z"
       id="path242226"
       inkscape:label="std range" />
    <path
       d="M109 570.4945 L109.509 570.4945 L110.0181 570.4945 L110.5271 570.4945 L111.0361 570.4945 L111.5452 570.4945 L112.0542 570.4945 L112.5632 570.4945 L113.0723 570.4945 L113.5813 570.4945 L114.0903 570.4945 L114.5994 570.4945 L115.1084 570.4945 L115.6174 570.4945 L116.1265 570.4945 L116.6355 570.4945 L117.1445 570.4945 L117.6536 570.4945 L118.1626 570.4945 L118.6716 570.4945 L119.1807 570.4888 L119.6897 570.4813 L120.1987 570.4633 L120.7078 570.4303 L121.2168 570.3688 L121.7258 570.2966 L122.2349 570.2007 L122.7439 570.1005 L123.2529 569.9883 L123.762 569.8668 L124.271 569.7324 L124.78 569.5938 L125.2891 569.4375 L125.7981 569.2696 L126.3072 569.0932 L126.8162 568.904 L127.3252 568.6823 L127.8343 568.4421 L128.3433 568.2054 L128.8523 567.9449 L129.3614 567.6668 L129.8704 567.3651 L130.3794 567.0491 L130.8885 566.7001 L131.3975 566.3256 L131.9065 565.917 L132.4156 565.4934 L132.9246 565.0512 L133.4336 564.5624 L133.9427 564.0538 L134.4517 563.5199 L134.9607 562.9214 L135.4698 562.3261 L135.9788 561.6454 L136.4878 560.9548 L136.9969 560.199 L137.5059 559.3627 L138.0149 558.479 L138.524 557.4682 L139.033 556.4341 L139.542 555.3641 L140.0511 554.146 L140.5601 552.8365 L141.0691 551.4193 L141.5782 549.9305 L142.0872 548.4424 L142.5962 546.8531 L143.1053 545.0986 L143.6143 543.2186 L144.1233 541.0927 L144.6324 538.8638 L145.1414 536.3926 L145.6504 533.9724 L146.1595 531.0322 L146.6685 527.9108 L147.1775 524.6816 L147.6866 521.0084 L148.1956 516.8217 L148.7046 512.651 L149.2137 508.2082 L149.7227 503.7278 L150.2317 498.8998 L150.7408 493.5929 L151.2498 487.5538 L151.7588 481.6741 L152.2679 475.6054 L152.7769 468.4245 L153.2859 461.2916 L153.795 453.2542 L154.304 446.5 L154.813 438.1896 L155.3221 429.3296 L155.8311 421.6693 L156.3401 410.8098 L156.8492 401.942 L157.3582 390.855 L157.8672 379.2899 L158.3763 368.4521 L158.8853 358.5808 L159.3943 349.4652 L159.9034 336.3649 L160.4124 326.076 L160.9214 315.7457 L161.4305 304.7241 L161.9395 292.5341 L162.4485 280.7761 L162.9576 267.0406 L163.4666 258.0201 L163.9756 245.7056 L164.4847 231.2019 L164.9937 220.9176 L165.5027 211.3643 L166.0118 200.2133 L166.5208 193.2664 L167.0298 183.728 L167.5389 175.7508 L168.0479 164.886 L168.5569 158.3474 L169.066 146.9784 L169.575 139.374 L170.0841 133.9889 L170.5931 128.9775 L171.1021 123.333 L171.6112 118.6083 L172.1202 116.4768 L172.6292 112.1542 L173.1383 107.75 L173.6473 106.0769 L174.1563 104.3919 L174.6654 101.6826 L175.1744 98.8072 L175.6834 97.1818 L176.1925 96.5971 L176.7015 94.2439 L177.2105 94.2439 L177.7196 93.0587 L178.2286 92.4639 L178.7376 91.2699 L179.2467 90.6708 L179.7557 90.6708 L180.2647 90.0701 L180.7738 90.0701 L181.2828 87.0445 L181.7918 85.8238 L182.3009 85.2112 L182.8099 85.2112 L183.3189 84.597 L183.828 84.597 L184.337 83.9813 L184.846 83.3641 L185.3551 83.3641 L185.8641 82.7453 L186.3731 83.45 L186.8822 83.45 L187.3912 83.45 L187.9002 83.45 L188.4093 84.1565 L188.9183 84.1565 L189.4273 84.1565 L189.9364 84.1565 L190.4454 84.8647 L190.9544 85.5746 L191.4635 85.5746 L191.9725 85.5746 L192.4815 84.9548 L192.9906 84.9548 L193.4996 84.9548 L194.0086 84.9548 L194.5177 84.9548 L195.0267 84.9548 L195.5357 85.6667 L196.0448 85.6667 L196.5538 85.6667 L197.0629 85.6667 L197.5719 85.7591 L198.0809 85.7591 L198.59 85.7591 L199.099 85.7591 L199.608 85.7591 L200.1171 85.7591 L200.6261 85.7591 L201.1351 85.7591 L201.6441 85.7591 L202.1532 86.5696 L202.6622 86.5696 L203.1712 86.5696 L203.6803 86.5696 L204.1893 86.5696 L204.6983 88.0101 L205.2074 88.0101 L205.7164 88.0101 L206.2254 88.0101 L206.7345 88.0101 L207.2435 88.0101 L207.7525 88.0101 L208.2616 88.0101 L208.7706 88.7332 L209.2796 89.458 L209.7887 89.458 L210.2977 90.1847 L210.8068 90.1847 L211.3158 90.1847 L211.8248 90.1847 L212.3339 90.9133 L212.8429 91.6437 L213.3519 91.6437 L213.861 91.6437 L214.37 91.7529 L214.879 92.4872 L215.3881 93.2234 L215.8971 93.2234 L216.4061 93.2234 L216.9152 93.2234 L217.4242 93.9614 L217.9332 93.9614 L218.4423 93.9614 L218.9513 93.9614 L219.4603 94.7014 L219.9694 94.7014 L220.4784 94.7014 L220.9874 95.4433 L221.4965 95.4433 L222.0055 95.4433 L222.5145 95.4433 L223.0236 95.4433 L223.5326 96.1871 L224.0416 96.1871 L224.5507 96.9328 L225.0597 96.9328 L225.5687 96.9328 L226.0778 97.6805 L226.5868 97.6805 L227.0958 98.43 L227.6049 98.43 L228.1139 98.43 L228.6229 98.43 L229.132 98.43 L229.641 98.43 L230.15 98.43 L230.6591 98.43 L231.1681 98.43 L231.6771 98.43 L232.1862 98.43 L232.6952 98.43 L233.2042 98.43 L233.7133 98.43 L234.2223 98.43 L234.7313 98.43 L235.2404 98.43 L235.7494 99.1816 L236.2584 99.1816 L236.7675 99.1816 L237.2765 99.1816 L237.7856 99.9351 L238.2946 100.6905 L238.8036 100.6905 L239.3127 100.6905 L239.8217 100.6905 L240.3307 100.6905 L240.8398 100.6905 L241.3488 100.6905 L241.8578 100.6905 L242.3669 100.6905 L242.8759 101.4479 L243.3849 101.4479 L243.894 101.4479 L244.403 101.4479 L244.912 101.4479 L245.4211 101.4479 L245.9301 101.4479 L246.4391 101.4479 L246.9482 102.2073 L247.4572 102.2073 L247.9662 103.732 L248.4753 103.732 L248.9843 104.4974 L249.4933 104.4974 L250.0023 104.4974 L250.5114 104.4974 L251.0204 104.4974 L251.5295 104.4974 L252.0385 105.2647 L252.5475 105.2647 L253.0566 105.2647 L253.5656 105.2647 L254.0746 105.2647 L254.5837 105.2647 L255.0927 105.2647 L255.6017 105.2647 L256.1107 105.2647 L256.6198 105.2647 L257.1288 106.0341 L257.6379 106.0341 L258.1469 107.5789 L258.6559 107.5789 L259.165 107.5789 L259.674 107.5789 L260.183 107.5789 L260.6921 107.5789 L261.2011 107.5789 L261.7101 107.5789 L262.2192 109.1319 L262.7282 109.1319 L263.2372 109.9115 L263.7463 109.9115 L264.2553 109.9115 L264.7643 109.9115 L265.2734 109.9115 L265.7824 111.4768 L266.2914 111.4768 L266.8005 111.4768 L267.3095 111.4768 L267.8185 111.4768 L268.3276 112.2626 L268.8366 112.2626 L269.3456 112.2626 L269.8547 112.2626 L270.3637 112.2626 L270.8727 112.2626 L271.3818 113.8404 L271.8908 113.8404 L272.3998 113.8404 L272.9089 113.8404 L273.4179 115.4267 L273.9269 115.4267 L274.436 116.223 L274.945 116.223 L275.454 116.223 L275.9631 116.223 L276.4721 116.223 L276.9811 116.223 L277.4902 116.223 L277.9992 116.223 L278.5082 117.0214 L279.0173 117.0214 L279.5263 117.0214 L280.0353 117.0214 L280.5444 117.0214 L281.0534 117.0214 L281.5624 117.0214 L282.0715 117.0214 L282.5805 117.822 L283.0895 117.822 L283.5986 117.822 L284.1076 119.4295 L284.6167 119.4295 L285.1257 119.4295 L285.6347 120.2366 L286.1438 120.2366 L286.6528 121.0458 L287.1618 121.8571 L287.6709 122.6707 L288.1799 123.4865 L288.6889 123.4865 L289.198 123.4865 L289.707 123.4865 L290.216 123.4865 L290.7251 123.4865 L291.2341 124.3045 L291.7431 124.3045 L292.2522 124.3045 L292.7612 124.3045 L293.2702 124.3045 L293.7793 125.9471 L294.2883 125.9471 L294.7973 125.9471 L295.3064 125.9471 L295.8154 125.9471 L296.3244 125.9471 L296.8335 125.9471 L297.3425 126.7717 L297.8515 126.7717 L298.3606 127.5986 L298.8696 127.5986 L299.3786 127.5986 L299.8877 127.5986 L300.3967 127.5986 L300.9057 128.4278 L301.4148 128.4278 L301.9238 128.4278 L302.4328 128.4278 L302.9419 129.2592 L303.4509 129.2592 L303.9599 129.2592 L304.469 130.0929 L304.978 130.9288 L305.487 130.9288 L305.9961 130.9288 L306.5051 130.9288 L307.0141 130.9288 L307.5232 130.9288 L308.0322 130.9288 L308.5412 131.7671 L309.0503 131.7671 L309.5593 131.7671 L310.0683 131.7671 L310.5774 131.7671 L311.0864 132.6077 L311.5955 132.6077 L312.1045 132.6077 L312.6135 132.6077 L313.1226 133.4506 L313.6316 134.2957 L314.1406 134.2957 L314.6497 134.2957 L315.1587 135.1432 L315.6677 135.1432 L316.1768 135.1432 L316.6858 135.1432 L317.1948 135.1432 L317.7039 135.1432 L318.2129 135.9931 L318.7219 135.9931 L319.231 135.9931 L319.74 135.9931 L320.249 135.9931 L320.7581 138.5568 L321.2671 138.5568 L321.7761 138.5568 L322.2852 138.5568 L322.7942 138.5568 L323.3032 138.5568 L323.8123 138.5568 L324.3213 138.5568 L324.8303 138.5568 L325.3394 138.5568 L325.8484 138.5568 L326.3574 138.5568 L326.8665 138.5568 L327.3755 139.4161 L327.8845 139.4161 L328.3936 141.1419 L328.9026 141.1419 L329.4116 141.1419 L329.9207 141.1419 L330.4297 142.8773 L330.9387 142.8773 L331.4478 142.8773 L331.9568 142.8773 L332.4658 142.8773 L332.9749 142.8773 L333.4839 142.8773 L333.9929 142.8773 L334.502 142.8773 L335.011 142.8773 L335.52 142.8773 L336.0291 142.8773 L336.5381 142.8773 L337.0471 143.7486 L337.5562 143.7486 L338.0652 144.6224 L338.5742 146.3773 L339.0833 146.3773 L339.5923 147.2584 L340.1013 147.2584 L340.6104 147.2584 L341.1194 148.1421 L341.6284 148.1421 L342.1375 148.1421 L342.6465 149.0282 L343.1555 149.0282 L343.6646 149.0282 L344.1736 149.0282 L344.6826 149.0282 L345.1917 149.0282 L345.7007 149.0282 L346.2097 149.0282 L346.7188 149.0282 L347.2278 149.9168 L347.7368 149.9168 L348.2459 149.9168 L348.7549 149.9168 L349.2639 149.9168 L349.773 150.8079 L350.282 150.8079 L350.791 151.7016 L351.3001 151.7016 L351.8091 151.7016 L352.3181 151.7016 L352.8272 152.5977 L353.3362 152.5977 L353.8452 152.5977 L354.3543 152.5977 L354.8633 152.5977 L355.3723 152.5977 L355.8814 152.5977 L356.3904 152.5977 L356.8994 153.4964 L357.4085 154.3977 L357.9175 155.3016 L358.4265 156.208 L358.9356 156.208 L359.4446 156.208 L359.9536 158.0286 L360.4627 158.0286 L360.9717 158.0286 L361.4807 158.9428 L361.9898 158.9428 L362.4988 159.8596 L363.0078 159.8596 L363.5169 159.8596 L364.0259 160.7791 L364.5349 160.7791 L365.044 160.7791 L365.553 160.7791 L366.0621 160.7791 L366.5711 160.7791 L367.0801 160.7791 L367.5892 160.7791 L368.0982 161.7012 L368.6072 162.6259 L369.1163 163.5533 L369.6253 163.5533 L370.1343 163.5533 L370.6434 163.5533 L371.1524 164.4834 L371.6614 164.4834 L372.1705 164.4834 L372.6795 164.4834 L373.1885 164.4834 L373.6976 166.3517 L374.2066 166.3517 L374.7156 166.3517 L375.2247 166.3517 L375.7337 166.3517 L376.2427 166.3517 L376.7518 166.3517 L377.2608 166.3517 L377.7698 166.3517 L378.2789 166.3517 L378.7879 166.3517 L379.2969 166.3517 L379.806 166.3517 L380.315 166.3517 L380.824 166.3517 L381.3331 166.3517 L381.8421 166.3517 L382.3511 166.3517 L382.8602 167.2899 L383.3692 167.2899 L383.8782 167.2899 L384.3873 168.2308 L384.8963 169.1744 L385.4053 170.1208 L385.9144 170.1208 L386.4234 170.1208 L386.9324 170.1208 L387.4415 170.1208 L387.9505 170.1208 L388.4595 170.1208 L388.9686 170.1208 L389.4776 170.1208 L389.9866 171.07 L390.4957 171.07 L391.0047 171.07 L391.5137 171.07 L392.0228 171.07 L392.5318 172.0219 L393.0409 172.9766 L393.5499 172.9766 L394.0589 172.9766 L394.568 173.9341 L395.077 173.9341 L395.586 173.9341 L396.0951 173.9341 L396.6041 173.9341 L397.1131 173.9341 L397.6222 174.8944 L398.1312 175.8576 L398.6402 175.8576 L399.1493 176.8235 L399.6583 176.8235 L400.1673 176.8235 L400.6764 177.7924 L401.1854 178.764 L401.6944 179.7385 L402.2035 180.716 L402.7125 180.716 L403.2215 181.6963 L403.7306 181.6963 L404.2396 182.6795 L404.7486 183.6657 L405.2577 183.6657 L405.7667 183.6657 L406.2757 183.6657 L406.7848 183.6657 L407.2938 183.6657 L407.8028 183.6657 L408.3119 184.6548 L408.8209 185.6468 L409.3299 185.6468 L409.839 185.6468 L410.348 185.6468 L410.857 185.6468 L411.3661 185.6468 L411.8751 186.6418 L412.3841 186.6418 L412.8932 186.6418 L413.4022 187.6398 L413.9112 187.6398 L414.4203 187.6398 L414.9293 187.6398 L415.4383 187.6398 L415.9474 187.6398 L416.4564 188.6407 L416.9654 190.6517 L417.4745 190.6517 L417.9835 191.6616 L418.4925 191.6616 L419.0016 191.6616 L419.5106 191.6616 L420.0197 191.6616 L420.5287 191.6616 L421.0377 191.6616 L421.5468 192.6747 L422.0558 192.6747 L422.5648 193.6908 L423.0739 193.6908 L423.5829 193.6908 L424.0919 194.71 L424.601 195.7322 L425.11 195.7322 L425.619 195.7322 L426.1281 195.7322 L426.6371 195.7322 L427.1461 195.7322 L427.6552 195.7322 L428.1642 195.7322 L428.6732 195.7322 L429.1823 196.7576 L429.6913 196.7576 L430.2003 196.7576 L430.7094 196.7576 L431.2184 197.7861 L431.7274 197.7861 L432.2365 197.7861 L432.7455 198.8176 L433.2545 199.8524 L433.7635 199.8524 L434.2726 200.8903 L434.7816 200.8903 L435.2906 201.9313 L435.7997 201.9313 L436.3087 201.9313 L436.8177 201.9313 L437.3268 201.9313 L437.8358 201.9313 L438.3448 201.9313 L438.8539 201.9313 L439.3629 201.9313 L439.8719 202.9755 L440.381 205.0736 L440.89 205.0736 L441.399 205.0736 L441.9081 205.0736 L442.4171 205.0736 L442.9261 206.1275 L443.4352 206.1275 L443.9442 206.1275 L444.4532 206.1275 L444.9623 206.1275 L445.4713 206.1275 L445.9803 206.1275 L446.4894 206.1275 L446.9984 206.1275 L447.5075 206.1275 L448.0165 206.1275 L448.5255 208.245 L449.0346 208.245 L449.5436 209.3086 L450.0526 209.3086 L450.5617 210.3756 L451.0707 210.3756 L451.5797 210.3756 L452.0888 211.4458 L452.5978 211.4458 L453.1068 211.4458 L453.6159 211.4458 L454.1249 211.4458 L454.6339 212.5194 L455.143 212.5194 L455.652 212.5194 L456.161 212.5194 L456.6701 213.5963 L457.1791 213.5963 L457.6881 214.6765 L458.1972 214.6765 L458.7062 214.6765 L459.2152 214.6765 L459.7243 215.7601 L460.2333 215.7601 L460.7423 216.8471 L461.2514 216.8471 L461.7604 216.8471 L462.2694 216.8471 L462.7785 216.8471 L463.2875 216.8471 L463.7965 216.8471 L464.3056 216.8471 L464.8146 217.9375 L465.3236 217.9375 L465.8327 219.0313 L466.3417 219.0313 L466.8507 219.0313 L467.3598 219.0313 L467.8688 219.0313 L468.3778 219.0313 L468.8869 219.0313 L469.3959 219.0313 L469.9049 219.0313 L470.414 219.0313 L470.923 220.1285 L471.432 220.1285 L471.9411 220.1285 L472.4501 221.2292 L472.9591 221.2292 L473.4682 222.3333 L473.9772 222.3333 L474.4863 222.3333 L474.9953 222.3333 L475.5043 222.3333 L476.0134 222.3333 L476.5224 222.3333 L477.0314 222.3333 L477.5405 222.3333 L478.0495 222.3333 L478.5585 222.3333 L479.0676 222.3333 L479.5766 223.4409 L480.0856 223.4409 L480.5947 223.4409 L481.1037 223.4409 L481.6127 224.552 L482.1218 224.552 L482.6308 224.552 L483.1398 224.552 L483.6489 224.552 L484.1579 224.552 L484.6669 224.552 L485.176 224.552 L485.685 224.552 L486.194 225.6667 L486.7031 225.6667 L487.2121 227.9065 L487.7211 227.9065 L488.2302 230.1606 L488.7392 230.1606 L489.2482 230.1606 L489.7573 230.1606 L490.2663 230.1606 L490.7753 230.1606 L491.2844 230.1606 L491.7934 230.1606 L492.3024 230.1606 L492.8115 230.1606 L493.3205 230.1606 L493.8295 230.1606 L494.3386 230.1606 L494.8476 231.293 L495.3566 231.293 L495.8657 231.293 L496.3747 232.429 L496.8837 233.5687 L497.3928 234.712 L497.9018 234.712 L498.4108 234.712 L498.9199 234.712 L499.4289 234.712 L499.9379 234.712 L500.447 235.859 L500.956 235.859 L501.4651 235.859 L501.9741 235.859 L502.4831 237.0096 L502.9922 237.0096 L503.5012 237.0096 L504.0102 237.0096 L504.5193 237.0096 L505.0283 237.0096 L505.5373 237.0096 L506.0464 237.0096 L506.5554 237.0096 L507.0644 237.0096 L507.5735 237.0096 L508.0825 237.0096 L508.5915 237.0096 L509.1006 238.164 L509.6096 238.164 L510.1186 238.164 L510.6277 238.164 L511.1367 239.3221 L511.6457 239.3221 L512.1547 240.4839 L512.6638 240.4839 L513.1728 242.8188 L513.6818 245.1688 L514.1909 246.3496 L514.7 246.3496 L515.209 246.3496 L515.718 246.3496 L516.2271 246.3496 L516.7361 246.3496 L517.2451 246.3496 L517.7542 246.3496 L518.2632 247.5342 L518.7722 248.7227 L519.2812 248.7227 L519.7903 249.915 L520.2993 249.915 L520.8083 251.1113 L521.3174 251.1113 L521.8264 251.1113 L522.3354 251.1113 L522.8445 252.3115 L523.3535 252.3115 L523.8625 252.3115 L524.3716 252.3115 L524.8806 252.3115 L525.3896 253.5156 L525.8987 253.5156 L526.4077 253.5156 L526.9167 253.5156 L527.4258 253.5156 L527.9348 253.5156 L528.4438 253.5156 L528.9529 253.5156 L529.4619 253.5156 L529.9709 254.7237 L530.48 257.1518 L530.989 257.1518 L531.498 257.1518 L532.0071 257.1518 L532.5161 257.1518 L533.0251 257.1518 L533.5342 257.1518 L534.0432 257.1518 L534.5522 258.3719 L535.0613 258.3719 L535.5703 258.3719 L536.0793 258.3719 L536.5884 258.3719 L537.0974 258.3719 L537.6064 258.3719 L538.1155 259.596 L538.6245 260.8242 L539.1335 262.0565 L539.6426 263.2928 L540.1516 264.5334 L540.6606 264.5334 L541.1697 265.778 L541.6787 265.778 L542.1877 265.778 L542.6968 265.778 L543.2058 265.778 L543.7148 267.0268 L544.2239 267.0268 L544.7329 267.0268 L545.2419 267.0268 L545.751 267.0268 L546.26 267.0268 L546.769 267.0268 L547.2781 267.0268 L547.7871 267.0268 L548.2961 267.0268 L548.8052 268.2797 L549.3142 268.2797 L549.8232 272.064 L550.3323 272.064 L550.8413 272.064 L551.3503 272.064 L551.8594 272.064 L552.3684 272.064 L552.8774 272.064 L553.3865 272.064 L553.8955 274.6081 L554.4045 274.6081 L554.9136 275.8867 L555.4226 275.8867 L555.9316 275.8867 L556.4407 275.8867 L556.9497 275.8867 L557.4587 275.8867 L557.9678 275.8867 L558.4768 277.1695 L558.9858 277.1695 L559.4949 277.1695 L560.0039 277.1695 L560.5129 277.1695 L561.022 277.1695 L561.531 277.1695 L562.04 277.1695 L562.5491 277.1695 L563.0581 278.4567 L563.5671 278.4567 L564.0762 278.4567 L564.5852 278.4567 L565.0942 279.7483 L565.6033 279.7483 L566.1123 279.7483 L566.6213 279.7483 L567.1304 281.0443 L567.6394 282.3447 L568.1485 282.3447 L568.6575 283.6496 L569.1666 283.6496 L569.6756 286.2727 L570.1846 287.5911 L570.6937 287.5911 L571.2027 287.5911 L571.7117 287.5911 L572.2208 287.5911 L572.7298 287.5911 L573.2388 287.5911 L573.7479 287.5911 L574.2569 287.5911 L574.7659 287.5911 L575.275 288.9139 L575.784 288.9139 L576.293 288.9139 L576.8021 291.5734 L577.3111 291.5734 L577.8201 291.5734 L578.3292 292.9101 L578.8382 292.9101 L579.3472 294.2513 L579.8563 295.5972 L580.3653 296.9478 L580.8743 296.9478 L581.3834 298.3031 L581.8924 298.3031 L582.4014 298.3031 L582.9105 298.3031 L583.4195 298.3031 L583.9285 298.3031 L584.4376 299.6632 L584.9466 301.028 L585.4556 301.028 L585.9647 302.3976 L586.4737 302.3976 L586.9827 302.3976 L587.4918 302.3976 L588.0008 303.7719 L588.5098 303.7719 L589.0189 305.1511 L589.5279 306.5352 L590.0369 306.5352 L590.546 306.5352 L591.055 307.9242 L591.564 307.9242 L592.0731 307.9242 L592.5821 309.318 L593.0911 309.318 L593.6002 310.7168 L594.1092 312.1205 L594.6182 312.1205 L595.1273 312.1205 L595.6363 312.1205 L596.1453 312.1205 L596.6544 312.1205 L597.1634 313.5293 L597.6724 313.5293 L598.1815 314.9431 L598.6905 317.7857 L599.1995 317.7857 L599.7086 317.7857 L600.2176 317.7857 L600.7266 319.2147 L601.2357 320.6487 L601.7447 320.6487 L602.2537 320.6487 L602.7628 323.5324 L603.2718 324.982 L603.7808 326.4368 L604.2899 326.4368 L604.7989 326.4368 L605.3079 327.8969 L605.817 329.3623 L606.326 330.833 L606.835 330.833 L607.3441 330.833 L607.8531 330.833 L608.3621 332.3091 L608.8712 332.3091 L609.3802 332.3091 L609.8892 332.3091 L610.3983 333.7905 L610.9073 333.7905 L611.4163 335.2774 L611.9254 335.2774 L612.4344 335.2774 L612.9434 335.2774 L613.4525 335.2774 L613.9615 335.2774 L614.4705 335.2774 L614.9796 336.7697 L615.4886 336.7697 L615.9976 336.7697 L616.5067 336.7697 L617.0157 338.2674 L617.5247 338.2674 L618.0338 338.2674 L618.5428 338.2674 L619.0518 338.2674 L619.5609 338.2674 L620.0699 338.2674 L620.5789 338.2674 L621.088 338.2674 L621.597 338.2674 L622.1061 339.7707 L622.6151 339.7707 L623.1241 339.7707 L623.6332 339.7707 L624.1422 339.7707 L624.6512 339.7707 L625.1603 339.7707 L625.6693 342.7937 L626.1783 342.7937 L626.6874 342.7937 L627.1964 342.7937 L627.7054 342.7937 L628.2145 345.8392 L628.7235 345.8392 L629.2325 348.9072 L629.7416 350.4498 L630.2506 350.4498 L630.7596 350.4498 L631.2687 350.4498 L631.7777 350.4498 L632.2867 350.4498 L632.7958 350.4498 L633.3048 350.4498 L633.8138 351.9981 L634.3229 351.9981 L634.8319 351.9981 L635.3409 351.9981 L635.85 351.9981 L636.359 351.9981 L636.868 351.9981 L637.3771 353.5522 L637.8861 353.5522 L638.3951 353.5522 L638.9042 353.5522 L639.4132 353.5522 L639.9222 355.1122 L640.4313 355.1122 L640.9403 355.1122 L641.4493 355.1122 L641.9584 355.1122 L642.4674 355.1122 L642.9764 355.1122 L643.4855 355.1122 L643.9945 356.6779 L644.5035 356.6779 L645.0126 356.6779 L645.5216 358.2495 L646.0306 358.2495 L646.5397 358.2495 L647.0487 358.2495 L647.5577 358.2495 L648.0668 359.8271 L648.5758 359.8271 L649.0848 359.8271 L649.5939 361.4106 L650.1029 361.4106 L650.6119 361.4106 L651.121 361.4106 L651.63 361.4106 L652.139 361.4106 L652.6481 361.4106 L653.1571 364.5955 L653.6661 364.5955 L654.1752 366.197 L654.6842 366.197 L655.1932 366.197 L655.7023 366.197 L656.2113 366.197 L656.7203 367.8046 L657.2294 369.4182 L657.7384 369.4182 L658.2474 369.4182 L658.7565 369.4182 L659.2655 369.4182 L659.7745 374.2964 L660.2836 374.2964 L660.7926 374.2964 L661.3016 375.9349 L661.8107 375.9349 L662.3197 375.9349 L662.8287 375.9349 L663.3378 375.9349 L663.8468 377.5797 L664.3558 377.5797 L664.8649 379.2308 L665.3739 379.2308 L665.8829 379.2308 L666.392 379.2308 L666.901 379.2308 L667.41 379.2308 L667.9191 380.8882 L668.4281 380.8882 L668.9371 380.8882 L669.4462 380.8882 L669.9552 382.5521 L670.4642 382.5521 L670.9733 382.5521 L671.4823 382.5521 L671.9913 382.5521 L672.5004 382.5521 L673.0094 382.5521 L673.5184 384.2224 L674.0275 384.2224 L674.5365 384.2224 L675.0455 385.8992 L675.5546 385.8992 L676.0637 385.8992 L676.5727 387.5825 L677.0817 387.5825 L677.5908 389.2724 L678.0998 389.2724 L678.6088 389.2724 L679.1179 389.2724 L679.6269 389.2724 L680.1359 389.2724 L680.645 389.2724 L681.154 389.2724 L681.663 389.2724 L682.1721 389.2724 L682.6811 389.2724 L683.1901 389.2724 L683.6992 389.2724 L684.2082 389.2724 L684.7172 389.2724 L685.2263 390.9688 L685.7353 390.9688 L686.2443 390.9688 L686.7534 392.6719 L687.2624 392.6719 L687.7714 392.6719 L688.2805 392.6719 L688.7895 394.3816 L689.2985 394.3816 L689.8076 394.3816 L690.3166 396.098 L690.8256 399.5512 L691.3347 399.5512 L691.8437 399.5512 L692.3527 401.288 L692.8618 401.288 L693.3708 401.288 L693.8798 401.288 L694.3889 401.288 L694.8979 401.288 L695.4069 403.0316 L695.916 403.0316 L696.425 403.0316 L696.934 404.7822 L697.4431 406.5397 L697.9521 406.5397 L698.4611 406.5397 L698.9702 406.5397 L699.4792 406.5397 L699.9882 406.5397 L700.4973 408.3042 L701.0063 410.0757 L701.5153 410.0757 L702.0244 410.0757 L702.5334 411.8543 L703.0424 413.64 L703.5515 413.64 L704.0605 413.64 L704.5695 413.64 L705.0786 413.64 L705.5876 413.64 L706.0966 413.64 L706.6057 413.64 L707.1147 413.64 L707.6237 413.64 L708.1328 413.64 L708.6418 413.64 L709.1508 413.64 L709.6599 413.64 L710.1689 413.64 L710.6779 417.2329 L711.187 417.2329 L711.696 417.2329 L712.205 417.2329 L712.7141 417.2329 L713.2231 419.0403 L713.7321 420.8548 L714.2411 420.8548 L714.7502 420.8548 L715.2592 422.6768 L715.7682 422.6768 L716.2773 422.6768 L716.7863 422.6768 L717.2953 424.5061 L717.8044 424.5061 L718.3134 424.5061 L718.8224 424.5061 L719.3315 426.3428 L719.8405 426.3428 L720.3495 426.3428 L720.8586 426.3428 L721.3676 426.3428 L721.8766 426.3428 L722.3857 428.187 L722.8947 428.187 L723.4037 428.187 L723.9128 428.187 L724.4218 428.187 L724.9308 431.8979 L725.4399 431.8979 L725.9489 431.8979 L726.4579 431.8979 L726.967 431.8979 L727.476 431.8979 L727.985 431.8979 L728.4941 433.7648 L729.0031 433.7648 L729.5121 433.7648 L730.0212 433.7648 L730.5303 433.7648 L731.0393 435.6393 L731.5483 437.5216 L732.0574 437.5216 L732.5664 437.5216 L733.0754 441.3093 L733.5845 441.3093 L734.0935 441.3093 L734.6025 441.3093 L735.1116 441.3093 L735.6206 441.3093 L736.1296 441.3093 L736.6387 443.2149 L737.1477 443.2149 L737.6567 443.2149 L738.1658 445.1284 L738.6748 445.1284 L739.1838 445.1284 L739.6929 445.1284 L740.2019 445.1284 L740.7109 445.1284 L741.22 445.1284 L741.729 445.1284 L742.238 445.1284 L742.7471 445.1284 L743.2561 445.1284 L743.7651 445.1284 L744.2742 445.1284 L744.7832 445.1284 L745.2922 445.1284 L745.8013 445.1284 L746.3103 445.1284 L746.8193 445.1284 L747.3284 445.1284 L747.8374 445.1284 L748.3464 445.1284 L748.8555 445.1284 L749.3645 445.1284 L749.8735 445.1284 L750.3826 447.0498 L750.8916 448.9792 L751.4006 448.9792 L751.9097 452.8622 L752.4187 452.8622 L752.9277 452.8622 L753.4368 452.8622 L753.9458 452.8622 L754.4548 452.8622 L754.9639 452.8622 L755.4729 454.8159 L755.9819 454.8159 L756.491 454.8159 L757 454.8159"
       style="fill-opacity:1;color-rendering:optimizeQuality;color-interpolation:linearRGB;text-rendering:geometricPrecision;stroke:rgb(170, 56, 56);stroke-linecap:butt;stroke-miterlimit:10;shape-rendering:auto;stroke-opacity:1;fill:none;stroke-dasharray:none;font-weight:normal;stroke-width:3.3333;font-family:'Dialog';font-style:normal;stroke-linejoin:round;font-size:12px;stroke-dashoffset:0;image-rendering:optimizeQuality;fill-rule:evenodd"
       id="path242230"
       inkscape:label="Curve" />
    <g
       style="fill-opacity:0.702;color-rendering:optimizeQuality;color-interpolation:linearRGB;text-rendering:geometricPrecision;stroke:rgb(85, 28, 28);stroke-linecap:butt;stroke-miterlimit:1;shape-rendering:auto;stroke-opacity:0.702;fill:rgb(85, 28, 28);stroke-dasharray:12, 12;font-weight:normal;stroke-width:3.3333;font-family:'Dialog';font-style:normal;stroke-linejoin:bevel;font-size:12px;stroke-dashoffset:0;image-rendering:optimizeQuality"
       id="g242240"
       inkscape:label="Th Lines">
      <line
         y2="49"
         style="fill:none;"
         x1="188.9183"
         x2="188.9183"
         y1="579"
         id="line242234" />
      <line
         x1="131.3975"
         x2="131.3975"
         y1="579"
         style="fill:none; stroke-dasharray:2,2; stroke-width:2;"
         y2="49"
         id="line242236" />
      <line
         x1="202.1532"
         x2="202.1532"
         y1="579"
         style="fill:none; stroke-dasharray:2,2; stroke-width:2;"
         y2="49"
         id="line242238" />
    </g>
  </g>
</svg>
